<svg width="36" height="36" viewBox="0 0 36 36" fill="none" xmlns="http://www.w3.org/2000/svg">
<path d="M9 27.6V8.4C9 8.16131 9.09482 7.93239 9.2636 7.7636C9.43239 7.59482 9.66131 7.5 9.9 7.5H14.1C14.3387 7.5 14.5676 7.59482 14.7364 7.7636C14.9052 7.93239 15 8.16131 15 8.4V27.6C15 27.8387 14.9052 28.0676 14.7364 28.2364C14.5676 28.4052 14.3387 28.5 14.1 28.5H9.9C9.66131 28.5 9.43239 28.4052 9.2636 28.2364C9.09482 28.0676 9 27.8387 9 27.6ZM21 27.6V8.4C21 8.16131 21.0948 7.93239 21.2636 7.7636C21.4324 7.59482 21.6613 7.5 21.9 7.5H26.1C26.3387 7.5 26.5676 7.59482 26.7364 7.7636C26.9052 7.93239 27 8.16131 27 8.4V27.6C27 27.8387 26.9052 28.0676 26.7364 28.2364C26.5676 28.4052 26.3387 28.5 26.1 28.5H21.9C21.6613 28.5 21.4324 28.4052 21.2636 28.2364C21.0948 28.0676 21 27.8387 21 27.6Z" fill="white" stroke="white" stroke-width="1.5"/>
</svg>
