<svg width="36" height="36" viewBox="0 0 36 36" fill="none" xmlns="http://www.w3.org/2000/svg">
<path d="M15.986 8.53677L26.7508 15.3425C27.212 15.634 27.5901 16.0322 27.8517 16.4955C28.1132 16.9588 28.25 17.4761 28.25 18.0016C28.25 18.5271 28.1132 19.0444 27.8517 19.5077C27.5901 19.971 27.212 20.366 26.7508 20.6575L15.986 27.4632C15.4789 27.784 14.8894 27.9682 14.2806 27.9962C13.6717 28.0243 13.0662 27.8951 12.5287 27.6224C11.9912 27.3498 11.5418 26.9439 11.2286 26.4481C10.9153 25.9524 10.7499 25.3853 10.75 24.8073V11.1991C10.7487 10.6206 10.9132 10.0527 11.226 9.55596C11.5387 9.05927 11.988 8.65247 12.5257 8.37906C13.0634 8.10565 13.6694 7.97591 14.2789 8.00368C14.8883 8.03146 15.4784 8.21572 15.986 8.53677Z" fill="white"/>
</svg>
