<svg width="40" height="40" viewBox="0 0 40 40" fill="none" xmlns="http://www.w3.org/2000/svg">
<path fill-rule="evenodd" clip-rule="evenodd" d="M23.6799 8.04998C24.4355 8.28331 25.1577 8.58331 25.8466 8.94998L28.9016 7.11665C29.2201 6.92558 29.5934 6.84641 29.9621 6.89171C30.3308 6.937 30.6738 7.10416 30.9366 7.36665L32.6333 9.06331C32.8957 9.32615 33.0629 9.66914 33.1082 10.0378C33.1535 10.4065 33.0743 10.7798 32.8833 11.0983L31.0499 14.1533C31.4166 14.8422 31.7166 15.5644 31.9499 16.32L35.4049 17.185C35.7653 17.2753 36.0852 17.4834 36.3138 17.7763C36.5424 18.0692 36.6666 18.4301 36.6666 18.8016V21.1983C36.6666 21.5699 36.5424 21.9308 36.3138 22.2237C36.0852 22.5166 35.7653 22.7247 35.4049 22.815L31.9499 23.68C31.7166 24.4355 31.4166 25.1578 31.0499 25.8466L32.8833 28.9016C33.0743 29.2202 33.1535 29.5935 33.1082 29.9621C33.0629 30.3308 32.8957 30.6738 32.6333 30.9366L30.9366 32.6333C30.6738 32.8958 30.3308 33.063 29.9621 33.1083C29.5934 33.1535 29.2201 33.0744 28.9016 32.8833L25.8466 31.05C25.1577 31.4166 24.4355 31.7166 23.6799 31.95L22.8149 35.405C22.7246 35.7654 22.5165 36.0853 22.2236 36.3139C21.9307 36.5425 21.5698 36.6666 21.1983 36.6666H18.8016C18.43 36.6666 18.0691 36.5425 17.7762 36.3139C17.4833 36.0853 17.2752 35.7654 17.1849 35.405L16.3199 31.95C15.5711 31.7186 14.8457 31.4172 14.1533 31.05L11.0983 32.8833C10.7797 33.0744 10.4064 33.1535 10.0378 33.1083C9.66908 33.063 9.32609 32.8958 9.06325 32.6333L7.36659 30.9366C7.1041 30.6738 6.93694 30.3308 6.89164 29.9621C6.84635 29.5935 6.92552 29.2202 7.11659 28.9016L8.94992 25.8466C8.58265 25.1542 8.28133 24.4288 8.04992 23.68L4.59492 22.815C4.23478 22.7248 3.91508 22.5169 3.68652 22.2243C3.45796 21.9317 3.33363 21.5712 3.33325 21.2V18.8033C3.33326 18.4318 3.45742 18.0709 3.68601 17.778C3.9146 17.4851 4.23451 17.2769 4.59492 17.1866L8.04992 16.3216C8.28325 15.5661 8.58325 14.8439 8.94992 14.155L7.11659 11.1C6.92552 10.7814 6.84635 10.4082 6.89164 10.0395C6.93694 9.6708 7.1041 9.32781 7.36659 9.06498L9.06325 7.36665C9.32609 7.10416 9.66908 6.937 10.0378 6.89171C10.4064 6.84641 10.7797 6.92558 11.0983 7.11665L14.1533 8.94998C14.8421 8.58331 15.5644 8.28331 16.3199 8.04998L17.1849 4.59498C17.2751 4.23485 17.483 3.91514 17.7756 3.68658C18.0682 3.45802 18.4287 3.33369 18.7999 3.33331H21.1966C21.5681 3.33332 21.929 3.45748 22.2219 3.68607C22.5148 3.91466 22.723 4.23457 22.8133 4.59498L23.6799 8.04998ZM19.9999 26.6666C21.768 26.6666 23.4637 25.9643 24.714 24.714C25.9642 23.4638 26.6666 21.7681 26.6666 20C26.6666 18.2319 25.9642 16.5362 24.714 15.2859C23.4637 14.0357 21.768 13.3333 19.9999 13.3333C18.2318 13.3333 16.5361 14.0357 15.2859 15.2859C14.0356 16.5362 13.3333 18.2319 13.3333 20C13.3333 21.7681 14.0356 23.4638 15.2859 24.714C16.5361 25.9643 18.2318 26.6666 19.9999 26.6666Z" fill="white"/>
</svg>
